<mxfile host="app.diagrams.net" modified="2023-08-21T03:17:31.978Z" agent="Mozilla/5.0 (Macintosh; Intel Mac OS X 10_15_7) AppleWebKit/605.1.15 (KHTML, like Gecko) Version/16.1 Safari/605.1.15" etag="3soSyst8tZLWASMBXh8D" version="21.6.8" type="github">
  <diagram name="Page-1" id="M6DnGAViyMCw0zxhOawh">
    <mxGraphModel dx="1194" dy="-462" grid="1" gridSize="10" guides="1" tooltips="1" connect="1" arrows="1" fold="1" page="1" pageScale="1" pageWidth="827" pageHeight="1169" math="0" shadow="0">
      <root>
        <mxCell id="0" />
        <mxCell id="1" parent="0" />
        <mxCell id="_3br67sx6UrSjN77arWI-5" style="edgeStyle=orthogonalEdgeStyle;rounded=0;sketch=1;hachureGap=4;jiggle=2;curveFitting=1;orthogonalLoop=1;jettySize=auto;html=1;exitX=1;exitY=0.5;exitDx=0;exitDy=0;exitPerimeter=0;entryX=0;entryY=0.5;entryDx=0;entryDy=0;entryPerimeter=0;fontFamily=Architects Daughter;fontSource=https%3A%2F%2Ffonts.googleapis.com%2Fcss%3Ffamily%3DArchitects%2BDaughter;fontSize=16;" edge="1" parent="1" source="_3br67sx6UrSjN77arWI-1" target="_3br67sx6UrSjN77arWI-2">
          <mxGeometry relative="1" as="geometry" />
        </mxCell>
        <mxCell id="_3br67sx6UrSjN77arWI-9" style="edgeStyle=orthogonalEdgeStyle;rounded=0;sketch=1;hachureGap=4;jiggle=2;curveFitting=1;orthogonalLoop=1;jettySize=auto;html=1;exitX=1;exitY=0.5;exitDx=0;exitDy=0;exitPerimeter=0;entryX=0;entryY=0.5;entryDx=0;entryDy=0;entryPerimeter=0;fontFamily=Architects Daughter;fontSource=https%3A%2F%2Ffonts.googleapis.com%2Fcss%3Ffamily%3DArchitects%2BDaughter;fontSize=16;" edge="1" parent="1" source="_3br67sx6UrSjN77arWI-1" target="_3br67sx6UrSjN77arWI-8">
          <mxGeometry relative="1" as="geometry" />
        </mxCell>
        <mxCell id="_3br67sx6UrSjN77arWI-1" value="Direct" style="strokeWidth=2;html=1;shape=mxgraph.flowchart.decision;whiteSpace=wrap;fillColor=#a0522d;strokeColor=#6D1F00;fontColor=#ffffff;fontSize=16;rounded=0;" vertex="1" parent="1">
          <mxGeometry x="100" y="1280" width="100" height="100" as="geometry" />
        </mxCell>
        <mxCell id="_3br67sx6UrSjN77arWI-6" style="edgeStyle=orthogonalEdgeStyle;rounded=0;sketch=1;hachureGap=4;jiggle=2;curveFitting=1;orthogonalLoop=1;jettySize=auto;html=1;exitX=1;exitY=0.5;exitDx=0;exitDy=0;exitPerimeter=0;fontFamily=Architects Daughter;fontSource=https%3A%2F%2Ffonts.googleapis.com%2Fcss%3Ffamily%3DArchitects%2BDaughter;fontSize=16;" edge="1" parent="1" source="_3br67sx6UrSjN77arWI-2" target="_3br67sx6UrSjN77arWI-3">
          <mxGeometry relative="1" as="geometry" />
        </mxCell>
        <mxCell id="_3br67sx6UrSjN77arWI-7" style="edgeStyle=orthogonalEdgeStyle;rounded=0;sketch=1;hachureGap=4;jiggle=2;curveFitting=1;orthogonalLoop=1;jettySize=auto;html=1;exitX=1;exitY=0.5;exitDx=0;exitDy=0;exitPerimeter=0;entryX=0;entryY=0.5;entryDx=0;entryDy=0;entryPerimeter=0;fontFamily=Architects Daughter;fontSource=https%3A%2F%2Ffonts.googleapis.com%2Fcss%3Ffamily%3DArchitects%2BDaughter;fontSize=16;" edge="1" parent="1" source="_3br67sx6UrSjN77arWI-2" target="_3br67sx6UrSjN77arWI-4">
          <mxGeometry relative="1" as="geometry" />
        </mxCell>
        <mxCell id="_3br67sx6UrSjN77arWI-2" value="Fanout" style="strokeWidth=2;html=1;shape=mxgraph.flowchart.decision;whiteSpace=wrap;fillColor=#a0522d;strokeColor=#6D1F00;fontColor=#ffffff;fontSize=16;rounded=0;" vertex="1" parent="1">
          <mxGeometry x="290" y="1220" width="100" height="100" as="geometry" />
        </mxCell>
        <mxCell id="_3br67sx6UrSjN77arWI-3" value="queue" style="strokeWidth=2;html=1;shape=mxgraph.flowchart.direct_data;whiteSpace=wrap;fillColor=#1ba1e2;fontColor=#ffffff;strokeColor=#006EAF;fontSize=17;rounded=0;" vertex="1" parent="1">
          <mxGeometry x="440" y="1190" width="100" height="60" as="geometry" />
        </mxCell>
        <mxCell id="_3br67sx6UrSjN77arWI-4" value="queue" style="strokeWidth=2;html=1;shape=mxgraph.flowchart.direct_data;whiteSpace=wrap;fillColor=#1ba1e2;fontColor=#ffffff;strokeColor=#006EAF;fontSize=17;rounded=0;" vertex="1" parent="1">
          <mxGeometry x="440" y="1290" width="100" height="60" as="geometry" />
        </mxCell>
        <mxCell id="_3br67sx6UrSjN77arWI-8" value="queue" style="strokeWidth=2;html=1;shape=mxgraph.flowchart.direct_data;whiteSpace=wrap;fillColor=#1ba1e2;fontColor=#ffffff;strokeColor=#006EAF;fontSize=17;rounded=0;" vertex="1" parent="1">
          <mxGeometry x="280" y="1370" width="100" height="60" as="geometry" />
        </mxCell>
        <mxCell id="_3br67sx6UrSjN77arWI-10" value="" style="endArrow=classic;html=1;sketch=1;hachureGap=4;jiggle=2;curveFitting=1;fontFamily=Helvetica;fontSource=https://fonts.googleapis.com/css?family=Architects+Daughter;fontSize=17;fontColor=#ffffff;entryX=-0.06;entryY=0.5;entryDx=0;entryDy=0;entryPerimeter=0;" edge="1" parent="1" target="_3br67sx6UrSjN77arWI-1">
          <mxGeometry width="50" height="50" relative="1" as="geometry">
            <mxPoint x="10" y="1330" as="sourcePoint" />
            <mxPoint x="70" y="1330" as="targetPoint" />
          </mxGeometry>
        </mxCell>
        <mxCell id="_3br67sx6UrSjN77arWI-11" value="&lt;font style=&quot;font-size: 14px;&quot;&gt;green&lt;/font&gt;" style="text;html=1;strokeColor=none;fillColor=none;align=center;verticalAlign=middle;whiteSpace=wrap;rounded=0;fontSize=20;fontFamily=Architects Daughter;" vertex="1" parent="1">
          <mxGeometry x="230" y="1230" width="60" height="30" as="geometry" />
        </mxCell>
        <mxCell id="_3br67sx6UrSjN77arWI-12" value="&lt;font style=&quot;font-size: 14px;&quot;&gt;message&lt;/font&gt;" style="text;html=1;strokeColor=none;fillColor=none;align=center;verticalAlign=middle;whiteSpace=wrap;rounded=0;fontSize=20;fontFamily=Architects Daughter;" vertex="1" parent="1">
          <mxGeometry x="30" y="1290" width="60" height="30" as="geometry" />
        </mxCell>
        <mxCell id="_3br67sx6UrSjN77arWI-13" value="&lt;span style=&quot;font-size: 14px;&quot;&gt;black&lt;/span&gt;" style="text;html=1;strokeColor=none;fillColor=none;align=center;verticalAlign=middle;whiteSpace=wrap;rounded=0;fontSize=20;fontFamily=Architects Daughter;" vertex="1" parent="1">
          <mxGeometry x="180" y="1370" width="60" height="30" as="geometry" />
        </mxCell>
      </root>
    </mxGraphModel>
  </diagram>
</mxfile>
